<?xml version="1.0" encoding="utf-8"?>
<!-- Generator: Adobe Illustrator 24.3.0, SVG Export Plug-In . SVG Version: 6.00 Build 0)  -->
<svg version="1.1" id="Layer_1" xmlns="http://www.w3.org/2000/svg" xmlns:xlink="http://www.w3.org/1999/xlink" x="0px" y="0px"
	 viewBox="0 0 189 36" style="enable-background:new 0 0 189 36;" xml:space="preserve">
<style type="text/css">
	.st0{fill-rule:evenodd;clip-rule:evenodd;fill:#D6BC00;}
	.st1{fill:#D6BC00;}
	.st2{fill:#FFFFFF;}
	.st3{fill-rule:evenodd;clip-rule:evenodd;fill:#FFFFFF;}
	.st4{display:none;}
</style>
<g id="ExamTools">
	<polygon id="Fill-114" class="st0" points="68.6,15.5 72.4,15.5 78.5,25 84.7,15.5 88.4,15.5 88.4,35.7 84.9,35.7 84.9,21.2 
		78.5,30.7 78.4,30.7 72.1,21.2 72.1,35.7 68.6,35.7 	"/>
	<path id="Fill-116" class="st0" d="M47.4,26.2l4.9-11.1l4.9,11.1H47.4z M64.1,33.2L53.7,9.6c1-0.5,1.7-1.6,1.7-2.8
		c0-1.7-1.4-3.1-3.1-3.1c-1.7,0-3.1,1.4-3.1,3.1c0,1.2,0.7,2.3,1.7,2.8L40.5,33.2c-0.4,0.9,0,1.9,0.9,2.3c0.9,0.4,1.9,0,2.3-0.9
		l2.2-4.9h12.9l2.2,4.9c0.3,0.7,0.9,1,1.6,1c0.2,0,0.5,0,0.7-0.1C64.1,35.1,64.5,34.1,64.1,33.2L64.1,33.2z"/>
	<path id="Fill-118" class="st0" d="M39.7,0.3c0.1-0.2,0.5-0.3,0.7-0.2c0.3,0.1,0.3,0.5,0.2,0.7c-1,1.7-1.6,3.7-1.6,5.8
		c0,1.9,0.5,3.8,1.4,5.4c0.1,0.1,0.1,0.3,0,0.4s-0.1,0.2-0.3,0.3c-0.1,0-0.2,0.1-0.3,0.1c-0.2,0-0.4-0.1-0.5-0.3
		c-1-1.8-1.5-3.9-1.5-5.9C38,4.4,38.6,2.2,39.7,0.3"/>
	<path id="Fill-120" class="st0" d="M45.2,10.8c0.1,0,0.2,0,0.3-0.1c0.3-0.1,0.4-0.4,0.2-0.7c-0.6-1-0.9-2.2-0.9-3.4
		c0-1.3,0.4-2.7,1.2-3.8c0.2-0.2,0.1-0.6-0.2-0.7C45.5,1.9,45.2,2,45,2.3c-0.9,1.3-1.3,2.8-1.3,4.4c0,1.3,0.4,2.7,1,3.9
		C44.9,10.7,45,10.8,45.2,10.8"/>
	<path id="Fill-122" class="st0" d="M64.6,0.3c-0.1-0.2-0.5-0.3-0.7-0.2c-0.3,0.1-0.3,0.5-0.2,0.7c1,1.7,1.6,3.7,1.6,5.8
		c0,1.9-0.5,3.8-1.4,5.4c-0.1,0.1-0.1,0.3,0,0.4c0,0.1,0.1,0.2,0.3,0.3c0.1,0,0.2,0.1,0.3,0.1c0.2,0,0.4-0.1,0.5-0.3
		c1-1.8,1.5-3.9,1.5-5.9C66.3,4.4,65.7,2.2,64.6,0.3"/>
	<path id="Fill-124" class="st0" d="M59,10.8c-0.1,0-0.2,0-0.3-0.1c-0.3-0.1-0.4-0.4-0.2-0.7c0.6-1,0.9-2.2,0.9-3.4
		c0-1.3-0.4-2.7-1.2-3.8c-0.2-0.2-0.1-0.6,0.2-0.7C58.7,1.9,59,2,59.2,2.3c0.9,1.3,1.3,2.8,1.3,4.4c0,1.3-0.4,2.7-1,3.9
		C59.4,10.7,59.2,10.8,59,10.8"/>
	<polygon class="st1" points="15.3,36 15.3,32.8 3.5,32.8 3.5,27.3 13.8,27.3 13.8,24.1 3.5,24.1 3.5,18.7 15.1,18.7 15.1,15.5 
		-0.1,15.5 -0.1,36 	"/>
	<polygon class="st1" points="22.1,36 27.5,28.2 32.9,36 37.2,36 29.7,25.5 36.9,15.5 32.7,15.5 27.6,22.9 22.5,15.5 18.3,15.5 
		25.5,25.6 18,36 	"/>
	<polygon id="T" class="st1" points="103.6,35 103.6,17.4 110.1,17.4 110.1,16.1 95.6,16.1 95.6,17.4 102.2,17.4 102.2,35 	"/>
	<path id="O" class="st1" d="M121.7,35.3c5.7,0,9.5-4.6,9.5-9.7v-0.1c0-5.1-3.7-9.7-9.4-9.7c-5.7,0-9.5,4.6-9.5,9.7v0.1
		C112.3,30.8,116,35.3,121.7,35.3z M121.8,34c-4.7,0-8-3.8-8-8.5v-0.1c0-4.7,3.3-8.4,8-8.4s8,3.8,8,8.5v0.1
		C129.8,30.3,126.4,34,121.8,34z"/>
	<path id="O_1_" class="st1" d="M144.9,35.3c5.7,0,9.5-4.6,9.5-9.7v-0.1c0-5.1-3.7-9.7-9.4-9.7s-9.5,4.6-9.5,9.7v0.1
		C135.5,30.8,139.2,35.3,144.9,35.3z M145,34c-4.7,0-8-3.8-8-8.5v-0.1c0-4.7,3.3-8.4,8-8.4s8,3.8,8,8.5v0.1
		C153,30.3,149.6,34,145,34z"/>
	<polygon id="L" class="st1" points="172,35 172,33.7 160.9,33.7 160.9,16.1 159.5,16.1 159.5,35 	"/>
	<path id="S" class="st1" d="M182.7,35.3c3.6,0,6.2-2.1,6.2-5.1v-0.1c0-2.7-1.8-4.3-6.2-5.2c-4.5-0.9-5.5-2.1-5.5-4.1v-0.1
		c0-2,1.8-3.6,4.6-3.6c2.1,0,3.8,0.6,5.6,2.1l0.9-1.1c-1.9-1.5-3.7-2.3-6.5-2.3c-3.5,0-6.1,2.2-6.1,5v0.1c0,2.9,1.8,4.4,6.3,5.3
		c4.3,0.9,5.3,2,5.3,4v0.1c0,2.2-1.9,3.7-4.8,3.7c-2.8,0-4.7-0.9-6.8-2.8l-0.9,1C177.4,34.3,179.7,35.3,182.7,35.3z"/>
</g>
<g id="SignalStuff">
	<g id="by">
		<path class="st2" d="M119.8,10.4v0.9h-0.4v-6h0.4v2.8c0.4-0.6,0.9-1,1.7-1c1,0,2,0.8,2,2.2l0,0c0,1.4-1,2.2-2,2.2
			C120.7,11.4,120.2,11,119.8,10.4z M123.2,9.3L123.2,9.3c0-1.1-0.8-1.8-1.7-1.8c-0.9,0-1.7,0.7-1.7,1.8l0,0c0,1.1,0.8,1.8,1.7,1.8
			C122.5,11.1,123.2,10.4,123.2,9.3z"/>
		<path class="st2" d="M128,7.1h0.4l-1.8,4.4c-0.4,0.9-0.8,1.2-1.4,1.2c-0.3,0-0.6-0.1-0.8-0.2l0.1-0.4c0.2,0.1,0.4,0.2,0.7,0.2
			c0.4,0,0.7-0.3,1-1l-2-4.2h0.5l1.8,3.8L128,7.1z"/>
	</g>
	<g id="Signal">
		<path id="Path" class="st3" d="M138.1,0.1l0.5,1.3l0.2-0.4h1.2c0.1-0.2,0.2-0.3,0.5-0.3s0.5,0.2,0.5,0.5s-0.2,0.5-0.5,0.5
			c-0.2,0-0.4-0.1-0.5-0.3h-1l-0.4,0.9l-0.5-1.4l-0.5,1.3L137,0.9l-0.5,1.3l-0.6-1.3l-0.2,0.4h-1.2c0,0.1-0.2,0.2-0.3,0.3v0.7l1,0.3
			L133.9,3l1.3,0.4l-1.3,0.5l1.3,0.4l-1.3,0.4l0.3,0.1v0.9c0.1,0,0.2,0.2,0.3,0.3h1l0.4-0.9l0.5,1.3l0.5-1.3l0.5,1.3l0.5-1.3
			l0.5,1.3l0.2-0.4h1.2c0.1-0.2,0.2-0.3,0.5-0.3s0.5,0.2,0.5,0.5c0,0.2-0.1,0.4-0.3,0.5v0.7l1,0.3l-1.3,0.4l1.3,0.4l-1.3,0.4
			l1.3,0.4l-1.3,0.4l0.3,0.1v0.9c0.2,0.1,0.3,0.2,0.3,0.5s-0.2,0.5-0.5,0.5c-0.2,0-0.4-0.1-0.5-0.3h-1l-0.4,0.9l-0.5-1.3l-0.5,1.3
			l-0.5-1.3l-0.5,1.3l-0.5-1.3l-0.2,0.4h-1.2c-0.1,0.2-0.2,0.3-0.5,0.3s-0.5-0.2-0.5-0.5s0.2-0.5,0.5-0.5c0.2,0,0.4,0.1,0.5,0.3h1
			l0.4-0.9l0.5,1.3l0.5-1.3l0.5,1.3l0.5-1.3l0.5,1.3l0.2-0.4h1.2c0.1-0.1,0.2-0.2,0.3-0.3V10l-1-0.3l1.3-0.4l-1.3-0.4l1.3-0.4
			l-1.3-0.4l1.3-0.4l-0.3-0.1V6.7c-0.1,0-0.3-0.2-0.3-0.3h-1l-0.4,0.9L137.9,6l-0.5,1.3L136.9,6l-0.5,1.3L135.9,6l-0.2,0.4h-1.2
			c-0.1,0.2-0.2,0.3-0.5,0.3s-0.5-0.2-0.5-0.5c0-0.2,0.1-0.4,0.3-0.5V5l-1-0.3l1.3-0.4l-1.2-0.4l1.3-0.4l-1.3-0.4l1.3-0.4l-0.3-0.1
			V1.7c-0.2-0.1-0.3-0.2-0.3-0.5s0.2-0.5,0.5-0.5c0.2,0,0.4,0.1,0.5,0.3h1l0.4-0.9l0.5,1.3l0.5-1.3l0.5,1.3L138.1,0.1z"/>
		<path id="Shape" class="st2" d="M143.3,4.3L143.3,4.3c0,0.4-0.1,0.4-0.4,0.4h-0.1c-0.3,0-0.4-0.1-0.4-0.4l0,0
			c0-0.3,0.1-0.4,0.4-0.4h0.1C143.2,4,143.3,4,143.3,4.3z M143.2,6v4.9c0,0.1-0.1,0.2-0.2,0.2h-0.3c-0.1,0-0.2,0-0.2-0.2V6
			c0-0.1,0-0.2,0.2-0.2h0.3C143.2,5.8,143.2,5.9,143.2,6z"/>
		<path id="Shape_1_" class="st2" d="M146.6,5.7c0.6,0,1.2,0.1,1.7,0.3c0.3,0.1,0.4,0.2,0.4,0.6v4.8c0,1.3-0.6,2.2-2.2,2.2
			c-0.8,0.1-1.6-0.4-2-1.1c0,0-0.1-0.1,0-0.2c0-0.1,0.1-0.1,0.1-0.1l0.2-0.1c0,0,0.1-0.1,0.2,0c0.1,0,0.1,0.1,0.1,0.1
			c0.3,0.5,0.8,0.9,1.4,0.8c1,0,1.5-0.6,1.5-1.5v-0.6c-0.5,0.2-1.1,0.3-1.6,0.3c-1.4,0-2-0.7-2-2V7.8C144.4,6.4,145.1,5.7,146.6,5.7
			z M146.6,6.3c-1.1,0-1.5,0.5-1.5,1.5v1.3c-0.1,0.4,0.1,0.8,0.4,1c0.3,0.3,0.7,0.4,1,0.3c0.5,0,1-0.1,1.5-0.3V6.8
			c0-0.2,0-0.2-0.2-0.3C147.4,6.4,147,6.3,146.6,6.3L146.6,6.3z"/>
		<path id="Shape_2_" class="st2" d="M152.3,5.7c1.4,0,2,0.7,2,2v3.2c0,0.1-0.1,0.2-0.2,0.2h-0.3c-0.1,0-0.2,0-0.2-0.2V7.7
			c0-0.9-0.4-1.4-1.4-1.4c-0.5,0-0.9,0.1-1.4,0.2c-0.1,0-0.2,0.1-0.2,0.3v4.1c0,0.1,0,0.2-0.2,0.2h-0.3c-0.1,0-0.2,0-0.2-0.2V6.6
			c0-0.3,0.1-0.4,0.4-0.6C151,5.8,151.7,5.7,152.3,5.7L152.3,5.7z"/>
		<path id="Shape_3_" class="st2" d="M157.6,5.7c1.6,0,2,0.9,2,2v2.7c0,0.4-0.1,0.5-0.4,0.6c-0.5,0.2-1.1,0.3-1.7,0.3
			c-1.8,0-2.2-0.6-2.2-1.6c0-1.2,0.6-1.6,2.2-1.6c0.4,0,0.9,0,1.3,0.1V7.7c0-0.8-0.3-1.4-1.4-1.4c-0.6-0.1-1.1,0.2-1.4,0.7
			c-0.1,0.1-0.1,0.1-0.3,0.1L155.5,7c-0.1-0.1-0.2-0.1-0.1-0.3C155.9,6,156.7,5.6,157.6,5.7L157.6,5.7z M157.5,8.6
			c-1.1,0-1.5,0.3-1.5,1s0.3,1,1.5,1c0.4,0,0.8,0,1.2-0.2c0.2-0.1,0.2-0.1,0.2-0.3V8.7C158.4,8.6,158,8.6,157.5,8.6L157.5,8.6z"/>
		<path id="Shape_4_" class="st2" d="M161.4,11h-0.3c-0.1,0-0.2,0-0.2-0.2V3.7c0-0.1,0-0.2,0.2-0.2h0.3c0.1,0,0.2,0,0.2,0.2v7.2
			C161.6,11,161.5,11,161.4,11z"/>
	</g>
	<g id="Stuff" transform="translate(92.000000, 0.000000)">
		<path id="Path_1_" class="st3" d="M76,0.1l0.5,1.3L76.7,1h1.2c0.1-0.2,0.2-0.3,0.5-0.3s0.5,0.2,0.5,0.5s-0.2,0.5-0.5,0.5
			c-0.2,0-0.4-0.1-0.5-0.3h-1l-0.4,0.9L76,0.9l-0.5,1.3l-0.6-1.3l-0.5,1.3l-0.6-1.3l-0.1,0.4h-1.2c0,0.1-0.2,0.2-0.3,0.3v0.7l1,0.3
			L71.9,3l1.3,0.4l-1.4,0.5l1.3,0.4l-1.3,0.4l0.3,0.2v0.9c0.1,0,0.2,0.2,0.3,0.3h1l0.4-0.9l0.5,1.3l0.5-1.3l0.5,1.3l0.5-1.3l0.5,1.3
			l0.4-0.4h1.2c0.1-0.2,0.2-0.3,0.5-0.3s0.5,0.2,0.5,0.5c0,0.2-0.1,0.4-0.3,0.5v0.7l1,0.3l-1.3,0.4l1.3,0.4L78.3,9l1.3,0.4l-1.3,0.5
			l0.3,0.1v0.9c0.2,0.1,0.3,0.2,0.3,0.5s-0.2,0.5-0.5,0.5c-0.2,0-0.4-0.1-0.5-0.3h-1l-0.4,0.9L76,11.2l-0.5,1.3L75,11.2l-0.5,1.3
			L74,11.2l-0.3,0.4h-1.2c-0.1,0.2-0.2,0.3-0.5,0.3s-0.5-0.2-0.5-0.5s0.2-0.5,0.5-0.5c0.2,0,0.4,0.1,0.5,0.3h1l0.4-0.9l0.5,1.3
			l0.5-1.3l0.5,1.3l0.5-1.3l0.5,1.3l0.2-0.4h1.2c0.1-0.1,0.2-0.2,0.3-0.3v-0.7l-1-0.3l1.3-0.4l-1.3-0.4l1.3-0.4l-1.3-0.4l1.3-0.4
			l-0.3-0.1V6.9c-0.1,0-0.3-0.2-0.3-0.3h-1l-0.4,0.9l-0.5-1.3l-0.5,1.3l-0.5-1.3l-0.5,1.3l-0.5-1.3l-0.2,0.2h-1.2
			c-0.1,0.2-0.2,0.3-0.5,0.3s-0.5-0.2-0.5-0.5c0-0.2,0.1-0.4,0.3-0.5V5l-1-0.3l1.3-0.4l-1.3-0.4l1.3-0.4l-1.3-0.4l1.3-0.4l-0.3-0.1
			V1.7c-0.2-0.1-0.3-0.2-0.3-0.5s0.2-0.5,0.5-0.5c0.2,0,0.4,0.1,0.5,0.3h1l0.4-0.9l0.5,1.3l0.5-1.3l0.5,1.3L76,0.1z"/>
		<path id="Shape_5_" class="st2" d="M81.9,4.9v1h1.5c0.1,0,0.2,0,0.2,0.2v0.3c0,0.1,0,0.2-0.2,0.2h-1.5v2.6c0,1.2,0.4,1.4,1.5,1.4
			c0.1,0,0.2,0.1,0.2,0.2v0.3c0,0.1,0,0.2-0.2,0.2c-1.6,0-2.1-0.4-2.1-2.1V6.6h-1c-0.1,0-0.2,0-0.2-0.2V6.2c0-0.1,0-0.2,0.2-0.2h1
			V4.9c0-0.1,0.1-0.2,0.2-0.2h0.2C81.8,4.8,81.9,4.8,81.9,4.9z"/>
		<path id="Shape_6_" class="st2" d="M88.6,6.2v4.3c0,0.3-0.1,0.4-0.4,0.6c-0.6,0.2-1.3,0.4-1.9,0.3c-1.4,0-2-0.7-2-2V6.2
			c0-0.1,0-0.2,0.2-0.2h0.3C84.9,6,85,6,85,6.2v3.2c-0.1,0.4,0.1,0.8,0.4,1.1s0.7,0.4,1.1,0.3c0.5,0,0.9-0.1,1.3-0.2
			c0.1,0,0.2-0.2,0.2-0.3v-4c0-0.1,0-0.2,0.2-0.2L88.6,6.2C88.5,6,88.6,6,88.6,6.2z"/>
		<path id="Shape_7_" class="st2" d="M92.8,3.9v0.3c0,0.1,0,0.2-0.2,0.2c-1.1,0-1.5,0.3-1.5,1.4v0.3h1.5c0.1,0,0.2,0,0.2,0.2v0.3
			c0,0.1,0,0.2-0.2,0.2h-1.5v4.4c0,0.1,0,0.2-0.2,0.2h-0.3c-0.1,0-0.2,0-0.2-0.2V6.6h-0.9c-0.1,0-0.2,0-0.2-0.2V6.2
			c0-0.1,0-0.2,0.2-0.2h0.9V5.7c0-1.4,0.6-2,2.1-2h0.1C92.7,3.7,92.8,3.7,92.8,3.9z"/>
		<path id="Shape_8_" class="st2" d="M96.4,3.9v0.3c0,0.1,0,0.2-0.2,0.2c-1.1,0-1.5,0.3-1.5,1.4v0.3h1.5c0.1,0,0.2,0,0.2,0.2v0.3
			c0,0.1,0,0.2-0.2,0.2h-1.5v4.4c0,0.1,0,0.2-0.2,0.2h-0.3c-0.1,0-0.2,0-0.2-0.2V6.6h-0.9c-0.1,0-0.2,0-0.2-0.2V6.2
			c0-0.1,0-0.2,0.2-0.2H94V5.7c0-1.4,0.6-2,2.1-2h0.1C96.3,3.7,96.4,3.7,96.4,3.9z"/>
	</g>
</g>
<g id="Development">
	<path class="st4" d="M94.6,0.9h3.1c2.6,0,4.5,1.8,4.5,4.2l0,0c0,2.4-1.8,4.2-4.5,4.2h-3.1V0.9z M96.1,2.3V8h1.7
		c1.8,0,2.9-1.2,2.9-2.8l0,0c0-1.6-1.2-2.9-2.9-2.9C97.8,2.3,96.1,2.3,96.1,2.3z"/>
	<path class="st4" d="M104,0.9h6.2v1.3h-4.7v2.2h4.2v1.3h-4.2V8h4.8v1.3H104V0.9z"/>
	<path class="st4" d="M111.3,0.9h1.6l2.5,6.5l2.5-6.5h1.6L116,9.4h-1.3L111.3,0.9z"/>
	<path class="st4" d="M121,0.9h6.2v1.3h-4.7v2.2h4.2v1.3h-4.2V8h4.8v1.3H121V0.9z"/>
	<path class="st4" d="M129.1,0.9h1.5V8h4.4v1.3h-5.9V0.9z"/>
	<path class="st4" d="M135.7,5.2L135.7,5.2c0-2.4,1.8-4.4,4.4-4.4c2.6,0,4.4,2,4.4,4.3l0,0c0,2.4-1.8,4.3-4.4,4.3
		C137.5,9.5,135.7,7.5,135.7,5.2z M142.9,5.2L142.9,5.2c0-1.7-1.2-3-2.9-3s-2.8,1.3-2.8,3l0,0c0,1.6,1.2,3,2.9,3
		S142.9,6.8,142.9,5.2z"/>
	<path class="st4" d="M146.2,0.9h3.3c2,0,3.2,1.1,3.2,2.8l0,0c0,1.9-1.5,2.9-3.4,2.9h-1.7v2.7h-1.5L146.2,0.9L146.2,0.9z M149.4,5.3
		c1.1,0,1.8-0.6,1.8-1.5l0,0c0-1-0.7-1.5-1.8-1.5h-1.7v3H149.4z"/>
	<path class="st4" d="M154.2,0.9h1.6l2.6,4l2.6-4h1.6v8.4H161v-6l-2.7,4l0,0l-2.6-3.9v6h-1.5V0.9z"/>
	<path class="st4" d="M164.7,0.9h6.2v1.3h-4.7v2.2h4.2v1.3h-4.2V8h4.8v1.3h-6.3V0.9z"/>
	<path class="st4" d="M172.7,0.9h1.4l4.5,5.8V0.9h1.5v8.4h-1.2l-4.6-6v6h-1.5L172.7,0.9L172.7,0.9z"/>
	<path class="st4" d="M184.2,2.3h-2.7V0.9h6.8v1.4h-2.7v7h-1.5L184.2,2.3L184.2,2.3z"/>
</g>
</svg>
