<?xml version="1.0" encoding="utf-8"?>
<!-- Generator: Adobe Illustrator 24.2.1, SVG Export Plug-In . SVG Version: 6.00 Build 0)  -->
<svg version="1.1" id="Layer_1" xmlns="http://www.w3.org/2000/svg" xmlns:xlink="http://www.w3.org/1999/xlink" x="0px" y="0px"
	 viewBox="0 0 250px 250px" style="width: 250px; height: 250px" xml:space="preserve">
<style type="text/css">
	.st0{fill:#FFFFFF;}
	.st1{clip-path:url(#SVGID_2_);fill:#001689;}
	.st2{clip-path:url(#SVGID_4_);fill:#CF3339;}
	.st3{clip-path:url(#SVGID_6_);fill:#001689;}
	.st4{clip-path:url(#SVGID_8_);fill:#001689;}
	.st5{clip-path:url(#SVGID_10_);fill:#001689;}
	.st6{clip-path:url(#SVGID_12_);fill:#FFFFFF;}
	.st7{clip-path:url(#SVGID_14_);fill:#FFFFFF;}
	.st8{clip-path:url(#SVGID_16_);fill:#FFFFFF;}
	.st9{clip-path:url(#SVGID_18_);fill:#FFFFFF;}
	.st10{clip-path:url(#SVGID_20_);fill:#FFFFFF;}
	.st11{clip-path:url(#SVGID_22_);fill:#001689;}
	.st12{clip-path:url(#SVGID_24_);fill:#001689;}
	.st13{clip-path:url(#SVGID_26_);fill:#001689;}
	.st14{clip-path:url(#SVGID_28_);fill:#001689;}
	.st15{clip-path:url(#SVGID_30_);fill:#001689;}
	.st16{clip-path:url(#SVGID_32_);fill:#001689;}
	.st17{clip-path:url(#SVGID_34_);fill:#001689;}
	.st18{clip-path:url(#SVGID_36_);fill:#001689;}
	.st19{clip-path:url(#SVGID_38_);fill:#001689;}
	.st20{clip-path:url(#SVGID_40_);fill:#001689;}
	.st21{clip-path:url(#SVGID_42_);fill:#001689;}
	.st22{clip-path:url(#SVGID_44_);fill:#001689;}
	.st23{clip-path:url(#SVGID_46_);fill:#001689;}
	.st24{clip-path:url(#SVGID_48_);fill:#001689;}
	.st25{clip-path:url(#SVGID_50_);fill:#001689;}
	.st26{clip-path:url(#SVGID_52_);fill:#001689;}
	.st27{clip-path:url(#SVGID_54_);fill:#001689;}
	.st28{clip-path:url(#SVGID_56_);fill:#001689;}
	.st29{clip-path:url(#SVGID_58_);fill:#CF3339;}
	.st30{clip-path:url(#SVGID_60_);fill:#CF3339;}
	.st31{clip-path:url(#SVGID_62_);fill:#001689;}
	.st32{clip-path:url(#SVGID_64_);fill:#001689;}
	.st33{clip-path:url(#SVGID_66_);fill:#001689;}
	.st34{clip-path:url(#SVGID_68_);fill:#001689;}
	.st35{clip-path:url(#SVGID_70_);fill:#001689;}
	.st36{clip-path:url(#SVGID_72_);fill:#001689;}
	.st37{clip-path:url(#SVGID_74_);fill:#001689;}
	.st38{clip-path:url(#SVGID_76_);fill:#001689;}
	.st39{clip-path:url(#SVGID_78_);fill:#001689;}
	.st40{clip-path:url(#SVGID_80_);fill:#CF3339;}
</style>
<circle class="st0" cx="64" cy="64.1" r="60.8"/>
<g>
	<g>
		<defs>
			<rect id="SVGID_1_" x="-10.6" y="-7.2" width="161.8" height="140.2"/>
		</defs>
		<clipPath id="SVGID_2_">
			<use xlink:href="#SVGID_1_"  style="overflow:visible;"/>
		</clipPath>
		<path class="st1" d="M3.2,64.1C3.2,30.6,30.5,3.3,64,3.3s60.8,27.3,60.8,60.8S97.5,124.9,64,124.9S3.2,97.6,3.2,64.1 M0,64.1
			c0,35.3,28.7,64,64,64s64-28.7,64-64s-28.7-64-64-64S0,28.7,0,64.1"/>
	</g>
	<g>
		<defs>
			<rect id="SVGID_3_" x="-10.6" y="-7.2" width="161.8" height="140.2"/>
		</defs>
		<clipPath id="SVGID_4_">
			<use xlink:href="#SVGID_3_"  style="overflow:visible;"/>
		</clipPath>
		<path class="st2" d="M64,111.5c26.1,0,47.2-21,47.4-47H16.7C16.8,90.5,38,111.5,64,111.5"/>
	</g>
	<g>
		<defs>
			<rect id="SVGID_5_" x="-10.6" y="-7.2" width="161.8" height="140.2"/>
		</defs>
		<clipPath id="SVGID_6_">
			<use xlink:href="#SVGID_5_"  style="overflow:visible;"/>
		</clipPath>
		<polyline class="st3" points="38,59.9 38,37.4 41.5,37.4 41.5,46.2 48.4,46.2 48.4,37.4 51.9,37.4 51.9,59.9 48.4,59.9 48.4,50 
			41.5,50 41.5,59.9 		"/>
	</g>
	<g>
		<defs>
			<rect id="SVGID_7_" x="-10.6" y="-7.2" width="161.8" height="140.2"/>
		</defs>
		<clipPath id="SVGID_8_">
			<use xlink:href="#SVGID_7_"  style="overflow:visible;"/>
		</clipPath>
		<path class="st4" d="M64.8,50.9l-2.5-8.3L60,50.9 M71.2,59.9h-3.7L66,54.8h-7l-1.4,5.1h-3.7l6.8-22.5h3.6L71.2,59.9z"/>
	</g>
	<g>
		<defs>
			<rect id="SVGID_9_" x="-10.6" y="-7.2" width="161.8" height="140.2"/>
		</defs>
		<clipPath id="SVGID_10_">
			<use xlink:href="#SVGID_9_"  style="overflow:visible;"/>
		</clipPath>
		<polyline class="st5" points="72.9,59.9 72.9,37.4 78.2,37.4 81.3,52.7 84.3,37.4 89.6,37.4 89.6,59.9 86.4,59.9 86.4,42.2 
			82.9,59.9 79.6,59.9 76.1,42.2 76.1,59.9 		"/>
	</g>
	<g>
		<defs>
			<rect id="SVGID_11_" x="-10.6" y="-7.2" width="161.8" height="140.2"/>
		</defs>
		<clipPath id="SVGID_12_">
			<use xlink:href="#SVGID_11_"  style="overflow:visible;"/>
		</clipPath>
		<polyline class="st6" points="29.6,91.9 29.6,69.6 33.3,69.6 33.3,91.9 		"/>
	</g>
	<g>
		<defs>
			<rect id="SVGID_13_" x="-10.6" y="-7.2" width="161.8" height="140.2"/>
		</defs>
		<clipPath id="SVGID_14_">
			<use xlink:href="#SVGID_13_"  style="overflow:visible;"/>
		</clipPath>
		<polyline class="st7" points="41.1,91.9 41.1,73.3 35.6,73.3 35.6,69.6 50.3,69.6 50.3,73.3 44.8,73.3 44.8,91.9 		"/>
	</g>
	<g>
		<defs>
			<rect id="SVGID_15_" x="-10.6" y="-7.2" width="161.8" height="140.2"/>
		</defs>
		<clipPath id="SVGID_16_">
			<use xlink:href="#SVGID_15_"  style="overflow:visible;"/>
		</clipPath>
		<path class="st8" d="M60,69.6h3.7v12c0,1.9,0.1,3.2,0.3,3.8c0.1,0.9,0.5,1.5,1.2,2.2c0.5,0.5,1.4,0.8,2.4,0.8s1.8-0.3,2.3-0.8
			c0.6-0.5,0.9-1.2,1-1.9c0.1-0.8,0.1-2.1,0.1-3.8V69.6h3.8v11.8c0,2.7-0.1,4.5-0.4,5.6c-0.1,1.2-0.5,2.1-1,2.8
			c-0.6,0.8-1.3,1.4-2.2,1.8c-0.9,0.5-2.2,0.6-3.6,0.6c-1.8,0-3.2-0.1-4.1-0.6c-0.9-0.5-1.7-1.2-2.2-1.9c-0.5-0.8-0.9-1.7-1-2.6
			c-0.3-1.3-0.4-3.1-0.4-5.6"/>
	</g>
	<g>
		<defs>
			<rect id="SVGID_17_" x="-10.6" y="-7.2" width="161.8" height="140.2"/>
		</defs>
		<clipPath id="SVGID_18_">
			<use xlink:href="#SVGID_17_"  style="overflow:visible;"/>
		</clipPath>
		<path class="st9" d="M82.6,73.3v6.4h2.2c1.4,0,2.4-0.1,2.9-0.4s0.9-0.6,1.2-1.2c0.4-0.5,0.5-1,0.5-1.7c0-0.9-0.3-1.5-0.6-2.1
			s-0.9-0.9-1.5-1c-0.4-0.1-1.4-0.1-2.7-0.1 M78.9,91.9V69.6h6c2.3,0,3.8,0,4.5,0.3c1.2,0.4,2.1,1.2,2.8,2.2c0.6,1.2,1,2.6,1,4.3
			c0,1.4-0.3,2.6-0.6,3.5s-0.9,1.7-1.5,2.2c-0.6,0.6-1.3,0.9-2.1,1.2c-0.9,0.1-2.2,0.3-3.8,0.3h-2.6V92L78.9,91.9L78.9,91.9z"/>
	</g>
	<g>
		<defs>
			<rect id="SVGID_19_" x="-10.6" y="-7.2" width="161.8" height="140.2"/>
		</defs>
		<clipPath id="SVGID_20_">
			<use xlink:href="#SVGID_19_"  style="overflow:visible;"/>
		</clipPath>
		<path class="st10" d="M96.8,91.9v-4.2h3.6v4.2 M97.6,86.2l-0.9-11.4v-5.2h3.8v5.2l-0.9,11.4H97.6z"/>
	</g>
	<g>
		<defs>
			<rect id="SVGID_21_" x="-10.6" y="-7.2" width="161.8" height="140.2"/>
		</defs>
		<clipPath id="SVGID_22_">
			<use xlink:href="#SVGID_21_"  style="overflow:visible;"/>
		</clipPath>
		<polyline class="st11" points="9.9,87.8 16,82.2 16.7,83.6 12.1,87.8 18.2,87 18.8,88.4 10.5,89.3 		"/>
	</g>
	<g>
		<defs>
			<rect id="SVGID_23_" x="-10.6" y="-7.2" width="161.8" height="140.2"/>
		</defs>
		<clipPath id="SVGID_24_">
			<use xlink:href="#SVGID_23_"  style="overflow:visible;"/>
		</clipPath>
		<path class="st12" d="M16.4,91.9c-0.8,0.5-1.3,1-1.4,1.5c-0.3,0.6-0.1,1.2,0.1,1.7c0.4,0.5,0.9,0.8,1.4,0.9c0.6,0.1,1.3-0.1,2-0.6
			c0.8-0.4,1.3-0.9,1.4-1.5c0.3-0.5,0.1-1-0.1-1.5c-0.4-0.5-0.9-0.9-1.4-1C17.8,91.3,17.2,91.4,16.4,91.9 M15.5,90.7
			c0.6-0.4,1.3-0.6,1.9-0.8c0.4-0.1,0.9-0.1,1.3,0s0.8,0.3,1.1,0.5c0.4,0.3,0.8,0.6,1.1,1.2c0.5,0.9,0.6,1.8,0.4,2.8
			c-0.3,0.9-0.9,1.7-2,2.4c-1,0.6-2,0.9-3.1,0.8c-0.9-0.3-1.7-0.8-2.3-1.7c-0.5-1-0.8-1.9-0.5-2.8C13.8,92.1,14.5,91.3,15.5,90.7"/>
	</g>
	<g>
		<defs>
			<rect id="SVGID_25_" x="-10.6" y="-7.2" width="161.8" height="140.2"/>
		</defs>
		<clipPath id="SVGID_26_">
			<use xlink:href="#SVGID_25_"  style="overflow:visible;"/>
		</clipPath>
		<polyline class="st13" points="17.2,100.3 23.2,95.3 24.3,96.6 19.3,100.6 21.6,103.5 20.5,104.4 		"/>
	</g>
	<g>
		<defs>
			<rect id="SVGID_27_" x="-10.6" y="-7.2" width="161.8" height="140.2"/>
		</defs>
		<clipPath id="SVGID_28_">
			<use xlink:href="#SVGID_27_"  style="overflow:visible;"/>
		</clipPath>
		<path class="st14" d="M27.2,99.9l1.1,1l-2.9,3.1c-0.5,0.5-0.8,0.9-0.9,1c-0.1,0.3-0.3,0.5-0.3,0.9c0.1,0.3,0.3,0.6,0.5,0.9
			c0.4,0.3,0.6,0.4,1,0.4c0.3,0.1,0.5,0,0.6-0.1c0.3-0.3,0.6-0.5,1-1l2.9-3.1l1.2,1l-2.8,2.9c-0.6,0.8-1.1,1.2-1.5,1.4
			c-0.3,0.3-0.6,0.4-1,0.4c-0.3,0.1-0.6,0-1-0.1s-0.8-0.4-1.3-0.8c-0.5-0.5-0.8-0.9-1-1.3c-0.1-0.4-0.1-0.8-0.1-1.2
			c0-0.4,0.1-0.6,0.3-0.9c0.3-0.4,0.8-0.9,1.3-1.5"/>
	</g>
	<g>
		<defs>
			<rect id="SVGID_29_" x="-10.6" y="-7.2" width="161.8" height="140.2"/>
		</defs>
		<clipPath id="SVGID_30_">
			<use xlink:href="#SVGID_29_"  style="overflow:visible;"/>
		</clipPath>
		<polyline class="st15" points="27.9,111.1 32.5,104.7 33.7,105.5 33.2,111.7 36.2,107.3 37.4,108.1 32.8,114.6 31.6,113.7 
			32,107.7 29.1,111.9 		"/>
	</g>
	<g>
		<defs>
			<rect id="SVGID_31_" x="-10.6" y="-7.2" width="161.8" height="140.2"/>
		</defs>
		<clipPath id="SVGID_32_">
			<use xlink:href="#SVGID_31_"  style="overflow:visible;"/>
		</clipPath>
		<polyline class="st16" points="36.3,116.4 39.2,110.7 37.3,109.7 38,108.5 43.2,111.2 42.6,112.3 40.7,111.3 37.7,117.1 		"/>
	</g>
	<g>
		<defs>
			<rect id="SVGID_33_" x="-10.6" y="-7.2" width="161.8" height="140.2"/>
		</defs>
		<clipPath id="SVGID_34_">
			<use xlink:href="#SVGID_33_"  style="overflow:visible;"/>
		</clipPath>
		<polyline class="st17" points="41.2,118.8 43.9,111.3 49.1,113.3 48.6,114.4 44.8,113.1 44.3,114.8 47.7,116 47.3,117.2 
			43.7,116.1 43.1,118 47.1,119.4 46.6,120.7 		"/>
	</g>
	<g>
		<defs>
			<rect id="SVGID_35_" x="-10.6" y="-7.2" width="161.8" height="140.2"/>
		</defs>
		<clipPath id="SVGID_36_">
			<use xlink:href="#SVGID_35_"  style="overflow:visible;"/>
		</clipPath>
		<polyline class="st18" points="48.5,121.2 50,113.5 55.5,114.6 55.3,115.9 51.3,115 50.9,116.8 54.6,117.6 54.4,118.9 50.7,118.1 
			50.3,120.1 54.4,121 54.1,122.3 		"/>
	</g>
	<g>
		<defs>
			<rect id="SVGID_37_" x="-10.6" y="-7.2" width="161.8" height="140.2"/>
		</defs>
		<clipPath id="SVGID_38_">
			<use xlink:href="#SVGID_37_"  style="overflow:visible;"/>
		</clipPath>
		<path class="st19" d="M57.8,118.2H59c0.8,0.1,1.2,0.1,1.4,0c0.1,0,0.3-0.1,0.4-0.3s0.1-0.4,0.3-0.6c0-0.3-0.1-0.4-0.3-0.6
			c-0.1-0.1-0.3-0.3-0.5-0.4c-0.1,0-0.5,0-1,0l-1.3-0.1 M56,122.6l0.5-7.8l3.2,0.3c0.8,0,1.4,0.1,1.8,0.3c0.3,0.1,0.6,0.5,0.8,0.8
			c0.3,0.4,0.3,0.9,0.3,1.3c0,0.6-0.3,1.2-0.6,1.4c-0.4,0.4-0.9,0.6-1.5,0.6c0.4,0.3,0.6,0.5,0.8,0.8c0.3,0.3,0.5,0.6,0.8,1.3
			l0.9,1.7l-1.9-0.1l-0.9-1.8c-0.4-0.6-0.6-1-0.8-1.3c-0.1-0.1-0.3-0.3-0.4-0.3c-0.1-0.1-0.4-0.1-0.8-0.3h-0.3l-0.3,3.3L56,122.6z"
			/>
	</g>
	<g>
		<defs>
			<rect id="SVGID_39_" x="-10.6" y="-7.2" width="161.8" height="140.2"/>
		</defs>
		<clipPath id="SVGID_40_">
			<use xlink:href="#SVGID_39_"  style="overflow:visible;"/>
		</clipPath>
		<polyline class="st20" points="70.5,122.6 69.3,114.8 74.8,113.9 75,115.3 70.9,115.9 71.3,117.6 75,116.9 75.2,118.3 71.4,119 
			71.8,121 75.9,120.4 76.2,121.7 		"/>
	</g>
	<g>
		<defs>
			<rect id="SVGID_41_" x="-10.6" y="-7.2" width="161.8" height="140.2"/>
		</defs>
		<clipPath id="SVGID_42_">
			<use xlink:href="#SVGID_41_"  style="overflow:visible;"/>
		</clipPath>
		<polyline class="st21" points="77.3,121.4 78.6,116.8 75.3,113.9 76.9,113.4 79.1,115.2 79.9,112.5 81.5,112 80.4,116.3 84,119.5 
			82.3,120 79.9,117.9 79.1,120.9 		"/>
	</g>
	<g>
		<defs>
			<rect id="SVGID_43_" x="-10.6" y="-7.2" width="161.8" height="140.2"/>
		</defs>
		<clipPath id="SVGID_44_">
			<use xlink:href="#SVGID_43_"  style="overflow:visible;"/>
		</clipPath>
		<path class="st22" d="M87.7,114.5l-2.2-2.3l0.3,3.1 M91.5,116.2l-1.5,0.6l-1.3-1.4l-2.8,1.3l0.3,1.9l-1.5,0.6l-0.5-8.3l1.4-0.6
			L91.5,116.2z"/>
	</g>
	<g>
		<defs>
			<rect id="SVGID_45_" x="-10.6" y="-7.2" width="161.8" height="140.2"/>
		</defs>
		<clipPath id="SVGID_46_">
			<use xlink:href="#SVGID_45_"  style="overflow:visible;"/>
		</clipPath>
		<polyline class="st23" points="92.9,115.5 88.7,108.8 90.6,107.6 94.6,111.4 92.9,106.2 94.8,105 99,111.6 97.9,112.4 94.4,107.1 
			96.6,113.2 95.3,113.9 90.7,109.4 94,114.7 		"/>
	</g>
	<g>
		<defs>
			<rect id="SVGID_47_" x="-10.6" y="-7.2" width="161.8" height="140.2"/>
		</defs>
		<clipPath id="SVGID_48_">
			<use xlink:href="#SVGID_47_"  style="overflow:visible;"/>
		</clipPath>
		<polyline class="st24" points="100.5,110.3 95.5,104.2 96.8,103.3 101.7,109.4 		"/>
	</g>
	<g>
		<defs>
			<rect id="SVGID_49_" x="-10.6" y="-7.2" width="161.8" height="140.2"/>
		</defs>
		<clipPath id="SVGID_50_">
			<use xlink:href="#SVGID_49_"  style="overflow:visible;"/>
		</clipPath>
		<polyline class="st25" points="103.3,108.2 97.8,102.6 98.8,101.5 104.7,103.2 101,99.4 102,98.5 107.5,104.1 106.5,105.1 
			100.7,103.6 104.3,107.2 		"/>
	</g>
	<g>
		<defs>
			<rect id="SVGID_51_" x="-10.6" y="-7.2" width="161.8" height="140.2"/>
		</defs>
		<clipPath id="SVGID_52_">
			<use xlink:href="#SVGID_51_"  style="overflow:visible;"/>
		</clipPath>
		<polyline class="st26" points="108.9,102.5 102.9,97.4 103.7,96.2 109.9,101.4 		"/>
	</g>
	<g>
		<defs>
			<rect id="SVGID_53_" x="-10.6" y="-7.2" width="161.8" height="140.2"/>
		</defs>
		<clipPath id="SVGID_54_">
			<use xlink:href="#SVGID_53_"  style="overflow:visible;"/>
		</clipPath>
		<polyline class="st27" points="111.1,99.9 104.6,95.4 105.5,94.2 111.5,94.6 107.2,91.7 107.9,90.5 114.6,95 113.7,96.3 
			107.7,95.8 111.9,98.7 		"/>
	</g>
	<g>
		<defs>
			<rect id="SVGID_55_" x="-10.6" y="-7.2" width="161.8" height="140.2"/>
		</defs>
		<clipPath id="SVGID_56_">
			<use xlink:href="#SVGID_55_"  style="overflow:visible;"/>
		</clipPath>
		<path class="st28" d="M114.7,88.6l-1.3-0.6l1.5-2.8l2.8,1.3c0.1,0.5,0.1,1,0.1,1.7c0,0.6-0.1,1.3-0.5,1.8
			c-0.3,0.6-0.8,1.3-1.3,1.5c-0.6,0.4-1.3,0.6-1.9,0.6c-0.8,0-1.4-0.3-2.2-0.5c-0.6-0.4-1.3-0.9-1.7-1.4c-0.5-0.6-0.8-1.3-0.8-1.9
			s0.1-1.2,0.5-1.8c0.4-0.9,0.9-1.4,1.4-1.7c0.6-0.4,1.3-0.4,2.1-0.3L113,86c-0.4-0.1-0.8,0-1.2,0.1c-0.3,0.1-0.5,0.4-0.8,0.9
			s-0.3,1-0.1,1.7c0.3,0.5,0.8,0.9,1.5,1.3c0.9,0.5,1.7,0.6,2.2,0.4c0.6-0.1,1-0.5,1.3-1c0.3-0.3,0.3-0.6,0.3-0.9c0.1-0.4,0-0.8,0-1
			l-0.9-0.4"/>
	</g>
	<g>
		<defs>
			<rect id="SVGID_57_" x="-10.6" y="-7.2" width="161.8" height="140.2"/>
		</defs>
		<clipPath id="SVGID_58_">
			<use xlink:href="#SVGID_57_"  style="overflow:visible;"/>
		</clipPath>
		<polyline class="st29" points="13.7,37 15.1,40.8 19.2,41.1 16,43.6 17.2,47.6 13.7,45.3 10.3,47.6 11.4,43.6 8.2,41.1 12.3,40.8 
					"/>
	</g>
	<g>
		<defs>
			<rect id="SVGID_59_" x="-10.6" y="-7.2" width="161.8" height="140.2"/>
		</defs>
		<clipPath id="SVGID_60_">
			<use xlink:href="#SVGID_59_"  style="overflow:visible;"/>
		</clipPath>
		<polyline class="st30" points="114.3,36.9 115.7,40.8 119.8,41 116.6,43.6 117.8,47.6 114.3,45.3 110.9,47.6 112,43.6 108.7,41 
			112.9,40.8 		"/>
	</g>
	<g>
		<defs>
			<rect id="SVGID_61_" x="-10.6" y="-7.2" width="161.8" height="140.2"/>
		</defs>
		<clipPath id="SVGID_62_">
			<use xlink:href="#SVGID_61_"  style="overflow:visible;"/>
		</clipPath>
		<polyline class="st31" points="40.6,18.8 35.9,12 37.3,11.4 40.5,16.1 39.6,10.4 41.2,9.6 44.6,14.3 43.4,8.6 44.8,7.9 46.4,16.2 
			44.8,16.9 41.1,11.9 42.1,18.2 		"/>
	</g>
	<g>
		<defs>
			<rect id="SVGID_63_" x="-10.6" y="-7.2" width="161.8" height="140.2"/>
		</defs>
		<clipPath id="SVGID_64_">
			<use xlink:href="#SVGID_63_"  style="overflow:visible;"/>
		</clipPath>
		<path class="st32" d="M47.7,13.6l1.3-0.5c0.3,0.3,0.4,0.5,0.6,0.6c0.3,0.3,0.5,0.3,0.8,0.1c0.3,0,0.5-0.3,0.6-0.5
			c0.1-0.4,0.1-0.8,0-1.3s-0.4-0.9-0.6-1c-0.3-0.3-0.5-0.3-0.9-0.1c-0.4,0.1-0.6,0.4-0.9,0.9h-1.2L47,7.6l3.7-1L51.1,8l-2.7,0.8
			l0.1,1.4c0.3-0.3,0.6-0.5,0.9-0.5c0.6-0.3,1.3-0.1,1.8,0.3c0.5,0.4,0.9,0.9,1.2,1.7c0.1,0.8,0.1,1.3-0.1,1.9
			c-0.3,0.9-0.8,1.4-1.7,1.7c-0.6,0.1-1.3,0.1-1.8-0.1C48.4,14.6,48,14.2,47.7,13.6"/>
	</g>
	<g>
		<defs>
			<rect id="SVGID_65_" x="-10.6" y="-7.2" width="161.8" height="140.2"/>
		</defs>
		<clipPath id="SVGID_66_">
			<use xlink:href="#SVGID_65_"  style="overflow:visible;"/>
		</clipPath>
		<polyline class="st33" points="56,13.7 55.4,10.3 52.1,6.1 53.9,5.8 56.1,8.8 57.4,5.3 59,5 57,10.2 57.5,13.5 		"/>
	</g>
	<g>
		<defs>
			<rect id="SVGID_67_" x="-10.6" y="-7.2" width="161.8" height="140.2"/>
		</defs>
		<clipPath id="SVGID_68_">
			<use xlink:href="#SVGID_67_"  style="overflow:visible;"/>
		</clipPath>
		<polyline class="st34" points="60.7,13.2 60.3,5 61.9,5 62.3,13.1 		"/>
	</g>
	<g>
		<defs>
			<rect id="SVGID_69_" x="-10.6" y="-7.2" width="161.8" height="140.2"/>
		</defs>
		<clipPath id="SVGID_70_">
			<use xlink:href="#SVGID_69_"  style="overflow:visible;"/>
		</clipPath>
		<polyline class="st35" points="66.6,11 66.7,9.4 69.5,9.6 69.4,11.2 		"/>
	</g>
	<g>
		<defs>
			<rect id="SVGID_71_" x="-10.6" y="-7.2" width="161.8" height="140.2"/>
		</defs>
		<clipPath id="SVGID_72_">
			<use xlink:href="#SVGID_71_"  style="overflow:visible;"/>
		</clipPath>
		<polyline class="st36" points="74.8,14.3 73.9,5.7 75.6,6.1 76.1,12.4 79.3,7 80.8,7.4 76.4,14.7 		"/>
	</g>
	<g>
		<defs>
			<rect id="SVGID_73_" x="-10.6" y="-7.2" width="161.8" height="140.2"/>
		</defs>
		<clipPath id="SVGID_74_">
			<use xlink:href="#SVGID_73_"  style="overflow:visible;"/>
		</clipPath>
		<polyline class="st37" points="79.5,15.5 82.3,7.8 87.4,9.8 87.1,11.1 83.2,9.7 82.6,11.4 86.2,12.8 85.6,14.1 82.2,12.7 
			81.4,14.7 85.4,16.2 84.9,17.5 		"/>
	</g>
	<g>
		<defs>
			<rect id="SVGID_75_" x="-10.6" y="-7.2" width="161.8" height="140.2"/>
		</defs>
		<clipPath id="SVGID_76_">
			<use xlink:href="#SVGID_75_"  style="overflow:visible;"/>
		</clipPath>
		<path class="st38" d="M91.4,17.7l1,1.1c-0.6,0.7-1.1,1.2-1.9,1.2c-0.6,0.3-1.3,0-2.1-0.4c-0.9-0.4-1.4-1.1-1.7-2.2
			c-0.3-0.9,0-2.1,0.5-3.1c0.6-1.3,1.4-2.1,2.4-2.3c0.9-0.4,1.8-0.3,2.7,0.3c0.9,0.4,1.4,1,1.5,1.8c0.3,0.5,0.3,1.1,0,1.8l-1.4-0.4
			c0.1-0.5,0-0.9-0.1-1.1c-0.1-0.4-0.4-0.6-0.6-0.9c-0.5-0.3-1-0.3-1.5-0.1c-0.5,0.3-1,0.8-1.4,1.7c-0.5,0.9-0.6,1.7-0.6,2.2
			c0.1,0.5,0.4,0.9,0.9,1.3c0.4,0.1,0.8,0.1,1.2,0.1C90.7,18.5,91.1,18.2,91.4,17.7"/>
	</g>
	<g>
		<defs>
			<rect id="SVGID_77_" x="-10.6" y="-7.2" width="161.8" height="140.2"/>
		</defs>
		<clipPath id="SVGID_78_">
			<use xlink:href="#SVGID_77_"  style="overflow:visible;"/>
		</clipPath>
		<path class="st39" d="M15,64.1v0.3l3.2,0.1v-0.4c0-25.2,20.5-45.8,45.8-45.8c25.2,0,45.8,20.6,45.8,45.8v0.3h3.1
			c0-27-21.9-49.3-48.9-49.3S15,37.1,15,64.1"/>
	</g>
	<g>
		<defs>
			<rect id="SVGID_79_" x="-10.6" y="-7.2" width="161.8" height="140.2"/>
		</defs>
		<clipPath id="SVGID_80_">
			<use xlink:href="#SVGID_79_"  style="overflow:visible;"/>
		</clipPath>
		<path class="st40" d="M64,109.9c-25.1,0-45.7-20.5-45.8-45.6H15c0.1,26.9,22.1,48.8,49,48.8s48.9-21.9,49-48.8h-3.2
			C109.7,89.4,89.1,109.9,64,109.9"/>
	</g>
</g>
</svg>
